<svg xmlns="http://www.w3.org/2000/svg" width="18.645" height="22" viewBox="0 0 22.645 26">
  <g id="KIWIP0" transform="translate(-901.309 -461.939)">
    <g id="Group_6417" data-name="Group 6417" transform="translate(901.309 461.939)">
      <path id="Path_12294" data-name="Path 12294" d="M907.546,465.215a6.277,6.277,0,0,1,.706-2.19,3.316,3.316,0,0,1,1.976-1,41.8,41.8,0,0,1,4.413-.046c1.9.006,2.756.831,2.83,2.71,0,.124.022.248.044.484.326.014.656.04.986.041,1.5.005,3.01-.037,4.51.036.325.016.629.44.943.676-.268.279-.539.8-.8.793-.8-.01-.906.386-.954,1.034-.433,5.9-.89,11.806-1.339,17.709a2.4,2.4,0,0,1-2.6,2.473q-5.639.015-11.279,0a2.4,2.4,0,0,1-2.6-2.471q-.675-8.9-1.345-17.8c-.043-.575-.135-.915-.847-.927a1.163,1.163,0,0,1-.856-.722c-.107-.559.348-.8.9-.795C904.035,465.218,905.845,465.215,907.546,465.215Zm-3.05,1.607c.071.934.133,1.741.195,2.547q.6,7.866,1.2,15.731c.086,1.108.314,1.31,1.392,1.312,3.57.006,7.14-.014,10.709.013.919.007,1.288-.391,1.354-1.272.439-5.9.9-11.8,1.346-17.7a3.85,3.85,0,0,0-.057-.633Zm4.9-1.672h6.444c.129-1.407-.073-1.647-1.35-1.652q-1.871-.007-3.742,0C909.464,463.5,909.273,463.731,909.392,465.149Z" transform="translate(-901.309 -461.939)" fill="#c51413"/>
      <path id="Path_12295" data-name="Path 12295" d="M945.919,504.92q0,3.426,0,6.851c0,.554,0,1.163-.728,1.179-.8.018-.794-.621-.794-1.21,0-4.6-.011-9.2.022-13.8a1.444,1.444,0,0,1,.5-1.063c.5-.325.986.13.99.905C945.927,500.165,945.918,502.543,945.919,504.92Z" transform="translate(-936.298 -490.227)" fill="#c51413"/>
      <path id="Path_12296" data-name="Path 12296" d="M970.386,505.124q0-3.473,0-6.945c0-.551-.016-1.154.733-1.173.824-.021.79.621.789,1.2q0,6.9,0,13.8c0,.575-.046,1.145-.776,1.133s-.753-.6-.752-1.162C970.39,509.692,970.386,507.408,970.386,505.124Z" transform="translate(-957.398 -490.413)" fill="#c51413"/>
    </g>
  </g>
</svg>
