<?xml version="1.0" encoding="utf-8"?>
<!-- Generator: Adobe Illustrator 23.1.1, SVG Export Plug-In . SVG Version: 6.00 Build 0)  -->
<svg version="1.1" id="icon" xmlns="http://www.w3.org/2000/svg"  xmlns:xlink="http://www.w3.org/1999/xlink" x="0px" y="0px"
	 width="30px" height="30px" viewBox="0 0 100 100" style="fill: #4599f6;" xml:space="preserve">
<g id="i-xxsml.i-xsml.i-sml.i-mdm.i-lrg">
	<path d="M50,79.167c-11.584,0-22.322-4.581-31.054-13.249C11.791,58.816,8.688,51.777,8.661,51.711
		c-0.014-0.035-0.027-0.07-0.039-0.106c-0.377-1.105-0.377-2.323,0-3.429c0.03-0.087,0.065-0.172,0.106-0.255
		C10.113,45.124,22.915,20.833,50,20.833c11.584,0,22.322,4.581,31.054,13.249c7.153,7.1,10.258,14.14,10.285,14.207
		c0.014,0.035,0.027,0.07,0.04,0.106c0.377,1.106,0.377,2.324,0,3.429c-0.03,0.087-0.066,0.172-0.107,0.255
		C89.886,54.877,77.081,79.167,50,79.167z M12.547,50.199C13.101,51.39,24.62,75,50,75c24.217,0,35.934-21.582,37.463-24.621
		c0.046-0.189,0.043-0.389-0.01-0.577C86.897,48.608,75.376,25,50,25c-24.22,0-35.934,21.579-37.464,24.621
		C12.491,49.811,12.494,50.011,12.547,50.199z"/>
	<path d="M50,66.667c-9.19,0-16.667-7.477-16.667-16.667c0-9.19,7.477-16.667,16.667-16.667c9.19,0,16.667,7.477,16.667,16.667
		c0.04,9.147-7.377,16.627-16.532,16.667H50z M50,37.5c-6.892,0-12.5,5.607-12.5,12.5c0,6.892,5.608,12.5,12.5,12.5h0.125
		c6.849-0.029,12.404-5.633,12.375-12.491C62.5,43.107,56.892,37.5,50,37.5z"/>
</g>
</svg>
